<svg width="192" height="185" viewBox="0 0 192 185" fill="none" xmlns="http://www.w3.org/2000/svg">
<path d="M52.1164 14.6593C89.6156 -6.02389 133.187 -3.71488 163.192 14.6593C193.196 33.0337 199.056 79.0532 184.061 111.187C169.065 143.32 149.424 160.32 119.442 172.337C89.4587 184.354 72.8781 190.348 44.4767 176.465C16.0755 162.582 0.871497 138.504 0.0323715 101.465C-0.806719 64.4262 14.6168 35.3428 52.1164 14.6593ZM83.1144 58.0001C52.7996 67.8068 40.9475 87.0552 27.5001 110.5L27.5011 110.79L27.5968 111.14C27.6318 111.278 27.6699 111.438 27.7121 111.623C29.441 119.21 32.6301 126.548 36.9367 132.822C32.8409 136.749 31.0099 142.845 32.3166 148.089C34.1954 155.629 41.5774 162.273 50.7013 160.135C56.3291 158.816 59.498 155.149 60.8927 150.722C65.7406 151.895 70.9155 151.941 76.2951 150.558C97.4835 145.11 104.74 123.681 103.914 101.82C103.253 84.3229 95.9981 66.8169 83.1144 58.0001ZM66.9904 78.2052C78.3584 78.0741 84.8766 89.2912 85.2873 100.51C85.6465 110.335 82.3273 119.972 72.6808 122.437C61.9596 125.175 53.0382 115.623 50.5968 104.973C47.8723 93.0838 54.6391 78.3485 66.9904 78.2052ZM164.5 69.0011C149 55.5012 133.238 43.4998 112.081 45.5011C107.161 54.4345 105.454 66.0912 107.792 76.502C111.895 94.7719 126.597 111.223 144.128 106.638C147.437 105.772 150.285 104.361 152.716 102.52C154.875 104.42 157.677 105.403 160.765 104.637C166.081 103.318 167.944 98.2935 167.785 93.1866C167.669 89.4653 166.182 85.7576 163.498 83.589C164.44 79.0235 164.758 74.1269 164.557 69.1993C164.557 69.1955 164.556 69.1913 164.556 69.1876C164.538 69.1283 164.519 69.0663 164.5 69.0011ZM132.333 54.7169C140.611 54.6975 145.441 63.5483 145.823 72.3556C146.158 80.0691 143.812 87.6073 136.805 89.4698C129.017 91.5396 122.451 83.9774 120.595 75.6007C118.523 66.2508 123.34 54.7384 132.333 54.7169Z" fill="#5A67B8"/>
</svg>
